<svg version="1.1" id="Layer_1" xmlns="http://www.w3.org/2000/svg" xmlns:xlink="http://www.w3.org/1999/xlink" x="0px" y="0px"
	 viewBox="0 0 300 300" enable-background="new 0 0 300 300" xml:space="preserve">
<g>
	<path fill="#EE5723" d="M149.8,15.2C75.3,15.2,15,75.6,15,150s60.3,134.8,134.8,134.8S284.5,224.4,284.5,150S224.2,15.2,149.8,15.2
		z"/>
	<path fill="#FFFFFF" d="M226.1,147.3c-0.4-0.9-0.9-1.6-1.5-2.3l-50.5-50.5c-2.7-2.7-7.2-2.7-9.9,0s-2.7,7.2,0,9.9l38.5,38.5H72.6
		c-3.9,0-7,3.1-7,7c0,3.9,3.1,7,7,7h130.1l-38.5,38.5c-2.7,2.7-2.7,7.2,0,9.9c1.4,1.4,3.2,2.1,5,2.1c1.8,0,3.6-0.7,5-2.1l50.5-50.5
		c0.6-0.6,1.2-1.4,1.5-2.3C226.8,151,226.8,149,226.1,147.3z"/>
</g>
</svg>
